PathFileType	4	(X/Y/Z) rotbonepin.trc
DataRate	CameraRate	NumFrames	NumMarkers	Units	OrigDataRate	OrigDataStartFrame	OrigNumFrames
100	100	14	11	mm	100	2754	3147
Frame#	Time	gu			centelbow			EpL			centpxt8			centijc7			ij			ts			ac			ai			acc			ijc
		X1	Y1	Z1	X2	Y2	Z2	X3	Y3	Z3	X4	Y4	Z4	X5	Y5	Z5	X6	Y6	Z6	X7	Y7	Z7	X8	Y8	Z8	X9	Y9	Z9  X10	Y10	Z10  X11	Y11	Z11
2753	27.53	326.944	25.658	11.995	399.819	32.631	256.843	401.554	60.647	248.582	338.136	-170.074	-111.472	319.434	23.917	-140.465	364.371	-8.127	-137.601	247.047	-20.013	-57.892	310.632	62.033	-10.623	300.631	-122.764	-1.323	310.632	62.033	-10.623	364.371	-8.127	-137.601
2754	27.54	326.859	25.67	11.977	399.684	32.632	256.84	401.469	60.641	248.566	338.08	-170.053	-111.435	319.383	23.93	-140.487	364.318	-8.117	-137.623	246.978	-19.917	-57.918	310.63	62.091	-10.67	300.503	-122.698	-1.348	310.63	62.091	-10.67	364.318	-8.117	-137.623
2755	27.55	326.818	25.667	11.979	399.659	32.614	256.838	401.503	60.614	248.548	338.036	-170.05	-111.392	319.368	23.926	-140.509	364.298	-8.128	-137.645	246.913	-19.808	-57.961	310.663	62.143	-10.747	300.367	-122.636	-1.408	310.663	62.143	-10.747	364.298	-8.128	-137.645
2756	27.56	326.917	25.687	11.979	399.786	32.602	256.831	401.69	60.594	248.527	337.994	-170.053	-111.335	319.367	23.919	-140.503	364.289	-8.145	-137.639	246.886	-19.675	-57.987	310.75	62.201	-10.796	300.252	-122.567	-1.47	310.75	62.201	-10.796	364.289	-8.145	-137.639
2757	27.57	327.076	25.747	11.972	399.903	32.593	256.838	401.869	60.578	248.524	337.943	-170.062	-111.27	319.355	23.91	-140.47	364.271	-8.164	-137.606	246.87	-19.512	-57.972	310.833	62.286	-10.783	300.14	-122.472	-1.486	310.833	62.286	-10.783	364.271	-8.164	-137.606
2758	27.58	327.116	25.802	11.942	399.847	32.547	256.84	401.89	60.523	248.517	337.876	-170.07	-111.233	319.314	23.902	-140.448	364.225	-8.179	-137.59	246.805	-19.349	-57.932	310.859	62.385	-10.754	299.985	-122.363	-1.461	310.859	62.385	-10.754	364.225	-8.179	-137.59
2759	27.59	327.021	25.812	11.862	399.693	32.472	256.779	401.828	60.437	248.44	337.788	-170.067	-111.257	319.242	23.905	-140.482	364.149	-8.182	-137.644	246.702	-19.216	-57.917	310.863	62.457	-10.78	299.799	-122.278	-1.455	310.863	62.457	-10.78	364.149	-8.182	-137.644
2760	27.6	326.984	25.819	11.76	399.632	32.474	256.684	401.86	60.424	248.319	337.703	-170.064	-111.327	319.174	23.907	-140.569	364.077	-8.189	-137.757	246.634	-19.106	-57.944	310.911	62.506	-10.858	299.661	-122.217	-1.504	310.911	62.506	-10.858	364.077	-8.189	-137.757
2761	27.61	327.131	25.892	11.718	399.686	32.6	256.668	401.993	60.535	248.276	337.657	-170.075	-111.375	319.147	23.893	-140.646	364.046	-8.21	-137.85	246.646	-18.989	-57.982	311.011	62.568	-10.921	299.617	-122.146	-1.575	311.011	62.568	-10.921	364.046	-8.21	-137.85
2762	27.62	327.317	25.996	11.749	399.687	32.73	256.754	402.066	60.653	248.341	337.642	-170.078	-111.347	319.144	23.884	-140.664	364.041	-8.221	-137.863	246.685	-18.853	-58.004	311.109	62.657	-10.943	299.604	-122.051	-1.623	311.109	62.657	-10.943	364.041	-8.221	-137.863
2763	27.63	327.339	26.056	11.761	399.564	32.766	256.809	402.02	60.677	248.38	337.608	-170.045	-111.271	319.116	23.91	-140.638	364.012	-8.196	-137.827	246.667	-18.715	-58.005	311.158	62.746	-10.95	299.516	-121.954	-1.634	311.158	62.746	-10.95	364.012	-8.196	-137.827
2764	27.64	327.24	26.084	11.693	399.49	32.778	256.735	402.027	60.675	248.283	337.52	-169.997	-111.229	319.04	23.955	-140.624	363.933	-8.155	-137.82	246.591	-18.606	-57.99	311.184	62.795	-10.972	299.348	-121.891	-1.617	311.184	62.795	-10.972	363.933	-8.155	-137.82
2765	27.65	327.226	26.138	11.601	399.63	32.844	256.597	402.241	60.727	248.119	337.404	-169.983	-111.255	318.94	23.971	-140.65	363.83	-8.147	-137.871	246.54	-18.52	-57.958	311.261	62.812	-10.995	299.196	-121.856	-1.584	311.261	62.812	-10.995	363.83	-8.147	-137.871
2766	27.66	327.352	26.233	11.553	399.878	32.936	256.512	402.552	60.806	248.014	337.306	-170.01	-111.31	318.857	23.947	-140.693	363.743	-8.179	-137.943	246.553	-18.408	-57.911	311.39	62.856	-10.991	299.117	-121.797	-1.55	311.39	62.856	-10.991	363.743	-8.179	-137.943
